<?xml version="1.0" encoding="UTF-8" standalone="no"?>
<svg width="16px" height="16px" viewBox="0 0 16 16" version="1.1" xmlns="http://www.w3.org/2000/svg" xmlns:xlink="http://www.w3.org/1999/xlink">
    <!-- Generator: Sketch 48.2 (47327) - http://www.bohemiancoding.com/sketch -->
    <title>Calendar.Icon</title>
    <desc>Created with Sketch.</desc>
    <defs></defs>
    <g id="x16" stroke="none" stroke-width="1" fill="none" fill-rule="evenodd" transform="translate(-75.000000, -235.000000)" opacity="0.9">
        <g id="SixteenPixels.Icons" transform="translate(75.000000, 45.000000)" fill="#4A4A4A">
            <g id="Row-5" transform="translate(0.000000, 190.000000)">
                <path d="M0,0 L16,0 L16,16 L0,16 L0,0 Z M2,2 L2,12 L14,12 L14,2 L2,2 Z M7,8 L9,8 L9,10 L7,10 L7,8 Z M10,8 L12,8 L12,10 L10,10 L10,8 Z M4,4 L6,4 L6,6 L4,6 L4,4 Z M7,4 L9,4 L9,6 L7,6 L7,4 Z" id="Calendar.Icon" transform="translate(8.000000, 8.000000) scale(1, -1) translate(-8.000000, -8.000000) "></path>
            </g>
        </g>
    </g>
</svg>