<?xml version="1.0" encoding="UTF-8" standalone="no"?>
<svg width="16px" height="16px" viewBox="0 0 16 16" version="1.1" xmlns="http://www.w3.org/2000/svg" xmlns:xlink="http://www.w3.org/1999/xlink">
    <!-- Generator: Sketch 48.2 (47327) - http://www.bohemiancoding.com/sketch -->
    <title>Clock.Icon</title>
    <desc>Created with Sketch.</desc>
    <defs></defs>
    <g id="x16" stroke="none" stroke-width="1" fill="none" fill-rule="evenodd" transform="translate(-108.000000, -235.000000)" opacity="0.9">
        <g id="SixteenPixels.Icons" transform="translate(75.000000, 45.000000)" fill="#4A4A4A">
            <g id="Row-5" transform="translate(0.000000, 190.000000)">
                <path d="M42,7.00720215 L45,7.00720215 L45,9.00720215 L42,9.00720215 L42,12 L40,12 L40,7 L42,7 L42,7.00720215 Z M33,8 C33,3.581722 36.5907123,0 41,0 C45.418278,0 49,3.59071231 49,8 C49,12.418278 45.4092877,16 41,16 C36.581722,16 33,12.4092877 33,8 Z M35,8 C35,11.3069658 37.6862915,14 41,14 C44.3069658,14 47,11.3137085 47,8 C47,4.69303423 44.3137085,2 41,2 C37.6930342,2 35,4.6862915 35,8 Z" id="Clock.Icon" transform="translate(41.000000, 8.000000) scale(1, -1) translate(-41.000000, -8.000000) "></path>
            </g>
        </g>
    </g>
</svg>