<?xml version="1.0" encoding="UTF-8" standalone="no"?>
<svg width="16px" height="16px" viewBox="0 0 16 16" version="1.1" xmlns="http://www.w3.org/2000/svg" xmlns:xlink="http://www.w3.org/1999/xlink">
    <!-- Generator: Sketch 48.2 (47327) - http://www.bohemiancoding.com/sketch -->
    <title>File.Icon</title>
    <desc>Created with Sketch.</desc>
    <defs></defs>
    <g id="x16" stroke="none" stroke-width="1" fill="none" fill-rule="evenodd" transform="translate(-75.000000, -93.000000)" opacity="0.9">
        <g id="SixteenPixels.Icons" transform="translate(75.000000, 45.000000)" fill="#4A4A4A">
            <g id="Row-2" transform="translate(0.000000, 48.000000)">
                <path d="M16,2 L16,16 L2,16 L0,16 L0,6 L2,6 L2,2 L8,2 L8,0 L16,0 L16,2 Z M14,6 L14,4.01667023 L4,4 L4,6 L14,6 Z M2,8 L2,14 L14,14 L14,8 L2,8 Z M10,2 L10,4 L14,4 L14,2 L10,2 Z" id="File.Icon"></path>
            </g>
        </g>
    </g>
</svg>