<?xml version="1.0" encoding="UTF-8" standalone="no"?>
<svg width="16px" height="16px" viewBox="0 0 16 16" version="1.1" xmlns="http://www.w3.org/2000/svg" xmlns:xlink="http://www.w3.org/1999/xlink">
    <!-- Generator: Sketch 48.2 (47327) - http://www.bohemiancoding.com/sketch -->
    <title>Play.Circle.Icon</title>
    <desc>Created with Sketch.</desc>
    <defs></defs>
    <g id="x16" stroke="none" stroke-width="1" fill="none" fill-rule="evenodd" transform="translate(-208.000000, -189.000000)" opacity="0.9">
        <g id="SixteenPixels.Icons" transform="translate(75.000000, 45.000000)" fill="#4A4A4A">
            <g id="Row-4" transform="translate(0.000000, 144.000000)">
                <path d="M133,8 C133,3.581722 136.590712,0 141,0 C145.418278,0 149,3.59071231 149,8 C149,12.418278 145.409288,16 141,16 C136.581722,16 133,12.4092877 133,8 Z M135,8 C135,11.3069658 137.686292,14 141,14 C144.306966,14 147,11.3137085 147,8 C147,4.69303423 144.313708,2 141,2 C137.693034,2 135,4.6862915 135,8 Z M139,5 L144,8 L139,11 L139,5 Z" id="Play.Circle.Icon" transform="translate(141.000000, 8.000000) scale(1, -1) translate(-141.000000, -8.000000) "></path>
            </g>
        </g>
    </g>
</svg>