<?xml version="1.0" encoding="UTF-8" standalone="no"?>
<svg width="16px" height="16px" viewBox="0 0 16 16" version="1.1" xmlns="http://www.w3.org/2000/svg" xmlns:xlink="http://www.w3.org/1999/xlink">
    <!-- Generator: Sketch 48.2 (47327) - http://www.bohemiancoding.com/sketch -->
    <title>Skip.Left.Circle.Icon</title>
    <desc>Created with Sketch.</desc>
    <defs></defs>
    <g id="x16" stroke="none" stroke-width="1" fill="none" fill-rule="evenodd" transform="translate(-275.000000, -189.000000)" opacity="0.9">
        <g id="SixteenPixels.Icons" transform="translate(75.000000, 45.000000)" fill="#4A4A4A">
            <g id="Row-4" transform="translate(0.000000, 144.000000)">
                <path d="M200,8 C200,3.581722 203.590712,0 208,0 C212.418278,0 216,3.59071231 216,8 C216,12.418278 212.409288,16 208,16 C203.581722,16 200,12.4092877 200,8 Z M202,8 C202,11.3069658 204.686292,14 208,14 C211.306966,14 214,11.3137085 214,8 C214,4.69303423 211.313708,2 208,2 C204.693034,2 202,4.6862915 202,8 Z M205,5 L207,5 L207,11 L205,11 L205,5 Z M211,5 L211,11 L208,8 L211,5 Z" id="Skip.Left.Circle.Icon" transform="translate(208.000000, 8.000000) scale(1, -1) translate(-208.000000, -8.000000) "></path>
            </g>
        </g>
    </g>
</svg>