<?xml version="1.0" encoding="UTF-8" standalone="no"?>
<svg width="16px" height="16px" viewBox="0 0 16 16" version="1.1" xmlns="http://www.w3.org/2000/svg" xmlns:xlink="http://www.w3.org/1999/xlink">
    <!-- Generator: Sketch 48.2 (47327) - http://www.bohemiancoding.com/sketch -->
    <title>ThumbDown.Icon</title>
    <desc>Created with Sketch.</desc>
    <defs></defs>
    <g id="x16" stroke="none" stroke-width="1" fill="none" fill-rule="evenodd" transform="translate(-175.000000, -93.000000)" opacity="0.9">
        <g id="SixteenPixels.Icons" transform="translate(75.000000, 45.000000)" fill="#4A4A4A">
            <g id="Row-2" transform="translate(0.000000, 48.000000)">
                <path d="M104,6 L104,0 L110,0 L110,4 L116,4 L116,16 L104,16 L100,16 L100,6 L104,6 Z M108,6 L108,2 L106,2 L106,6 L106,14 L114,14 L114,6 L108,6 Z M112,8 L114,8 L114,10 L112,10 L112,8 Z M112,11 L114,11 L114,13 L112,13 L112,11 Z M102,8 L102,14 L104,14 L104,8 L102,8 Z" id="ThumbDown.Icon" transform="translate(108.000000, 8.000000) scale(1, -1) translate(-108.000000, -8.000000) "></path>
            </g>
        </g>
    </g>
</svg>