<?xml version="1.0" encoding="UTF-8" standalone="no"?>
<svg width="16px" height="16px" viewBox="0 0 16 16" version="1.1" xmlns="http://www.w3.org/2000/svg" >
    
    
    
    
    <g id="x16" stroke="none" stroke-width="1"  fill-rule="evenodd" transform="translate(-108.000000, -45.000000)" opacity="0.9">
        <g id="SixteenPixels.Icons" transform="translate(75.000000, 45.000000)" >
            <g id="Row-1">
                <path d="M37,10.1710628 L37,6 L37,0 L49,0 L49,6 L39,6 L39,13 C39,14.6568542 37.6534829,16 36,16 C34.3431458,16 33,14.6534829 33,13 C33,11.3431458 34.3465171,10 36,10 C36.3506354,10 36.6872211,10.0603052 37,10.1710628 Z M35,13 C35,13.5561352 35.4477153,14 36,14 C36.5561352,14 37,13.5522847 37,13 C37,12.4438648 36.5522847,12 36,12 C35.4438648,12 35,12.4477153 35,13 Z M39,2 L39,4 L47,4 L47,2 L39,2 Z M47,8.17106282 L47,6 L49,6 L49,11 C49,12.6568542 47.6534829,14 46,14 C44.3431458,14 43,12.6534829 43,11 C43,9.34314575 44.3465171,8 46,8 C46.3506354,8 46.6872211,8.06030521 47,8.17106282 Z M45,11 C45,11.5561352 45.4477153,12 46,12 C46.5561352,12 47,11.5522847 47,11 C47,10.4438648 46.5522847,10 46,10 C45.4438648,10 45,10.4477153 45,11 Z" id="Audio.Icon"></path>
            </g>
        </g>
    </g>
</svg>