<?xml version="1.0" encoding="UTF-8" standalone="no"?>
<svg width="16px" height="16px" viewBox="0 0 16 16" version="1.1" xmlns="http://www.w3.org/2000/svg" >
    
    
    
    
    <g id="x16" stroke="none" stroke-width="1"  fill-rule="evenodd" transform="translate(-175.000000, -141.000000)" opacity="0.9">
        <g id="SixteenPixels.Icons" transform="translate(75.000000, 45.000000)" >
            <g id="Row-3" transform="translate(0.000000, 96.000000)">
                <path d="M109.414214,8 L111.535534,10.1213203 L110.12132,11.5355339 L108,9.41421356 L105.87868,11.5355339 L104.464466,10.1213203 L106.585786,8 L104.464466,5.87867966 L105.87868,4.46446609 L108,6.58578644 L110.12132,4.46446609 L111.535534,5.87867966 L109.414214,8 Z M100,0 L116,0 L116,16 L100,16 L100,0 Z M102,2 L102,14 L114,14 L114,2 L102,2 Z" id="Delete.Square.Icon" transform="translate(108.000000, 8.000000) scale(1, -1) translate(-108.000000, -8.000000) "></path>
            </g>
        </g>
    </g>
</svg>