<?xml version="1.0" encoding="UTF-8" standalone="no"?>
<svg width="16px" height="16px" viewBox="0 0 16 16" version="1.1" xmlns="http://www.w3.org/2000/svg" >
    
    
    
    
    <g id="x16" stroke="none" stroke-width="1"  fill-rule="evenodd" transform="translate(-108.000000, -189.000000)" opacity="0.9">
        <g id="SixteenPixels.Icons" transform="translate(75.000000, 45.000000)" >
            <g id="Row-4" transform="translate(0.000000, 144.000000)">
                <path d="M33,8 C33,3.581722 36.5907123,0 41,0 C45.418278,0 49,3.59071231 49,8 C49,12.418278 45.4092877,16 41,16 C36.581722,16 33,12.4092877 33,8 Z M35,8 C35,11.3069658 37.6862915,14 41,14 C44.3069658,14 47,11.3137085 47,8 C47,4.69303423 44.3137085,2 41,2 C37.6930342,2 35,4.6862915 35,8 Z M37,7 L45,7 L45,9 L37,9 L37,7 Z" id="Minus.Circle.Icon"></path>
            </g>
        </g>
    </g>
</svg>