<?xml version="1.0" encoding="UTF-8" standalone="no"?>
<svg width="16px" height="16px" viewBox="0 0 16 16" version="1.1" xmlns="http://www.w3.org/2000/svg" >
    
    
    
    
    <g id="x16" stroke="none" stroke-width="1"  fill-rule="evenodd" transform="translate(-275.000000, -235.000000)" opacity="0.9">
        <g id="SixteenPixels.Icons" transform="translate(75.000000, 45.000000)" >
            <g id="Row-5" transform="translate(0.000000, 190.000000)">
                <path d="M201.999143,11 L201.999143,13 L200,13 L200,3 L201.999143,3 L201.999143,5 L205.997428,3 L205.997428,13 L201.999143,11 Z M213.172785,6.41421356 L214.586089,5.00090917 L216.000303,6.41512274 L214.586999,7.82842712 L216.000303,9.24173151 L214.586089,10.6559451 L213.172785,9.24264069 L211.759481,10.6559451 L210.345267,9.24173151 L211.758572,7.82842712 L210.345267,6.41512274 L211.759481,5.00090917 L213.172785,6.41421356 Z M207.996571,0 L207.996571,16 L201.999143,13 L201.999143,3 L207.996571,0 Z" id="Mute.Icon"></path>
            </g>
        </g>
    </g>
</svg>