<?xml version="1.0" encoding="UTF-8" standalone="no"?>
<svg width="16px" height="16px" viewBox="0 0 16 16" version="1.1" xmlns="http://www.w3.org/2000/svg" >
    
    
    
    
    <g id="x16" stroke="none" stroke-width="1"  fill-rule="evenodd" transform="translate(-175.000000, -45.000000)" opacity="0.9">
        <g id="SixteenPixels.Icons" transform="translate(75.000000, 45.000000)" >
            <g id="Row-1">
                <path d="M112,4 L116,4 L116,16 L104,16 L104,12 L100,12 L100,0 L112,0 L112,4 Z M110,4 L110,2 L102,2 L102,10 L104,10 L104,4 L110,4 Z M106,6 L106,14 L114,14 L114,6 L106,6 Z M107,11.2499771 L110,9 L113,11.2499771 L113,12 L107,12 L107,11.2499771 Z M111,8 C111,7.44771525 111.443865,7 112,7 C112.552285,7 113,7.44386482 113,8 C113,8.55228475 112.556135,9 112,9 C111.447715,9 111,8.55613518 111,8 Z" id="PhotoSet.Icon"></path>
            </g>
        </g>
    </g>
</svg>