<?xml version="1.0" encoding="UTF-8" standalone="no"?>
<svg width="16px" height="16px" viewBox="0 0 16 16" version="1.1" xmlns="http://www.w3.org/2000/svg" >
    
    
    
    
    <g id="x16" stroke="none" stroke-width="1"  fill-rule="evenodd" transform="translate(-75.000000, -141.000000)" opacity="0.9">
        <g id="SixteenPixels.Icons" transform="translate(75.000000, 45.000000)" >
            <g id="Row-3" transform="translate(0.000000, 96.000000)">
                <path d="M9,7 L12,7 L12,9 L9,9 L9,12 L7,12 L7,9 L4,9 L4,7 L7,7 L7,4 L9,4 L9,7 Z M0,0 L16,0 L16,16 L0,16 L0,0 Z M2,2 L2,14 L14,14 L14,2 L2,2 Z" id="Plus.Square.Icon" transform="translate(8.000000, 8.000000) scale(1, -1) translate(-8.000000, -8.000000) "></path>
            </g>
        </g>
    </g>
</svg>