<?xml version="1.0" encoding="UTF-8" standalone="no"?>
<svg width="16px" height="16px" viewBox="0 0 16 16" version="1.1" xmlns="http://www.w3.org/2000/svg" >
    
    
    
    
    <g id="x16" stroke="none" stroke-width="1"  fill-rule="evenodd" transform="translate(-175.000000, -235.000000)" opacity="0.9">
        <g id="SixteenPixels.Icons" transform="translate(75.000000, 45.000000)" >
            <g id="Row-5" transform="translate(0.000000, 190.000000)">
                <path d="M112.027333,9.91921036 L116,13.9497475 L114,16 L109.924744,12.0236266 C108.929502,12.6425349 107.755599,13 106.5,13 C102.910149,13 100,10.0825462 100,6.5 C100,2.91014913 102.917454,0 106.5,0 C110.089851,0 113,2.91745375 113,6.5 C113,7.75446348 112.64374,8.92592629 112.027333,9.91921036 Z M101.996438,6.45251874 C101.996438,8.93274306 104.011156,10.9525187 106.496438,10.9525187 C108.976662,10.9525187 110.996438,8.93780011 110.996438,6.45251874 C110.996438,3.97229441 108.981719,1.95251874 106.496438,1.95251874 C104.016213,1.95251874 101.996438,3.96723736 101.996438,6.45251874 Z" id="Search.Icon"></path>
            </g>
        </g>
    </g>
</svg>