<?xml version="1.0" encoding="UTF-8" standalone="no"?>
<svg width="16px" height="16px" viewBox="0 0 16 16" version="1.1" xmlns="http://www.w3.org/2000/svg" xmlns:xlink="http://www.w3.org/1999/xlink">
    <!-- Generator: Sketch 48.2 (47327) - http://www.bohemiancoding.com/sketch -->
    <title>Settings.Icon</title>
    <desc>Created with Sketch.</desc>
    <defs></defs>
    <g id="x16" stroke="none" stroke-width="1" fill="none" fill-rule="evenodd" transform="translate(-308.000000, -93.000000)" opacity="0.9">
        <g id="SixteenPixels.Icons" transform="translate(75.000000, 45.000000)" fill="#4A4A4A">
            <g id="Row-2" transform="translate(0.000000, 48.000000)">
                <path d="M242,2.17106282 C243.165192,2.58366708 244,3.69643907 244,5 C244,6.30572133 243.163734,7.41661138 242,7.82882342 L242,16 L240,16 L240,7.82893718 C238.834808,7.41633292 238,6.30356093 238,5 C238,3.69427867 238.836266,2.58338862 240,2.17117658 L240,0 L242,0 L242,2.17106282 Z M237,8.17106282 C238.165192,8.58366708 239,9.69643907 239,11 C239,12.3057213 238.163734,13.4166114 237,13.8288234 L237,16 L235,16 L235,13.8289372 C233.834808,13.4163329 233,12.3035609 233,11 C233,9.69427867 233.836266,8.58338862 235,8.17117658 L235,0 L237,0 L237,8.17106282 Z M247,8.17106282 C248.165192,8.58366708 249,9.69643907 249,11 C249,12.3057213 248.163734,13.4166114 247,13.8288234 L247,16 L245,16 L245,13.8289372 C243.834808,13.4163329 243,12.3035609 243,11 C243,9.69427867 243.836266,8.58338862 245,8.17117658 L245,0 L247,0 L247,8.17106282 Z M245,11 C245,11.5561352 245.447715,12 246,12 C246.556135,12 247,11.5522847 247,11 C247,10.4438648 246.552285,10 246,10 C245.443865,10 245,10.4477153 245,11 Z M235,11 C235,11.5561352 235.447715,12 236,12 C236.556135,12 237,11.5522847 237,11 C237,10.4438648 236.552285,10 236,10 C235.443865,10 235,10.4477153 235,11 Z M240,5 C240,5.55613518 240.447715,6 241,6 C241.556135,6 242,5.55228475 242,5 C242,4.44386482 241.552285,4 241,4 C240.443865,4 240,4.44771525 240,5 Z" id="Settings.Icon" transform="translate(241.000000, 8.000000) scale(1, -1) translate(-241.000000, -8.000000) "></path>
            </g>
        </g>
    </g>
</svg>