<?xml version="1.0" encoding="UTF-8" standalone="no"?>
<svg width="16px" height="16px" viewBox="0 0 16 16" version="1.1" xmlns="http://www.w3.org/2000/svg" >
    
    
    
    
    <g id="x16" stroke="none" stroke-width="1"  fill-rule="evenodd" transform="translate(-308.000000, -189.000000)" opacity="0.9">
        <g id="SixteenPixels.Icons" transform="translate(75.000000, 45.000000)" >
            <g id="Row-4" transform="translate(0.000000, 144.000000)">
                <path d="M233,8 C233,3.581722 236.590712,0 241,0 C245.418278,0 249,3.59071231 249,8 C249,12.418278 245.409288,16 241,16 C236.581722,16 233,12.4092877 233,8 Z M235,8 C235,11.3069658 237.686292,14 241,14 C244.306966,14 247,11.3137085 247,8 C247,4.69303423 244.313708,2 241,2 C237.693034,2 235,4.6862915 235,8 Z M242,5 L244,5 L244,11 L242,11 L242,5 Z M238,5 L241,8 L238,11 L238,5 Z" id="Skip.Right.Circle.Icon" transform="translate(241.000000, 8.000000) scale(1, -1) translate(-241.000000, -8.000000) "></path>
            </g>
        </g>
    </g>
</svg>