<?xml version="1.0" encoding="UTF-8" standalone="no"?>
<svg width="16px" height="16px" viewBox="0 0 16 16" version="1.1" xmlns="http://www.w3.org/2000/svg" >
    
    
    
    
    <g id="x16" stroke="none" stroke-width="1"  fill-rule="evenodd" transform="translate(-208.000000, -235.000000)" opacity="0.9">
        <g id="SixteenPixels.Icons" transform="translate(75.000000, 45.000000)" >
            <g id="Row-5" transform="translate(0.000000, 190.000000)">
                <path d="M133,8 L141,0 L149,8 L141,16 L133,16 L133,8 Z M135,9 L135,14 L140,14 L146,8 L141,3 L135,9 Z M136,11.5 C136,10.6715729 136.665797,10 137.5,10 C138.328427,10 139,10.6657972 139,11.5 C139,12.3284271 138.334203,13 137.5,13 C136.671573,13 136,12.3342028 136,11.5 Z" id="Tag.Icon" transform="translate(141.000000, 8.000000) rotate(-270.000000) translate(-141.000000, -8.000000) "></path>
            </g>
        </g>
    </g>
</svg>