<?xml version="1.0" encoding="UTF-8" standalone="no"?>
<svg width="16px" height="16px" viewBox="0 0 16 16" version="1.1" xmlns="http://www.w3.org/2000/svg" >
    
    
    
    
    <g id="x16" stroke="none" stroke-width="1"  fill-rule="evenodd" transform="translate(-141.000000, -93.000000)" opacity="0.9">
        <g id="SixteenPixels.Icons" transform="translate(75.000000, 45.000000)" >
            <g id="Row-2" transform="translate(0.000000, 48.000000)">
                <path d="M70,6 L70,0 L76,0 L76,4 L82,4 L82,16 L70,16 L66,16 L66,6 L70,6 Z M74,6 L74,2 L72,2 L72,6 L72,14 L80,14 L80,6 L74,6 Z M78,8 L80,8 L80,10 L78,10 L78,8 Z M78,11 L80,11 L80,13 L78,13 L78,11 Z M68,8 L68,14 L70,14 L70,8 L68,8 Z" id="ThumbUp.Icon"></path>
            </g>
        </g>
    </g>
</svg>