<?xml version="1.0" encoding="UTF-8" standalone="no"?>
<svg width="16px" height="16px" viewBox="0 0 16 16" version="1.1" xmlns="http://www.w3.org/2000/svg" xmlns:xlink="http://www.w3.org/1999/xlink">
    <!-- Generator: Sketch 48.2 (47327) - http://www.bohemiancoding.com/sketch -->
    <title>Tick.Square.Icon</title>
    <desc>Created with Sketch.</desc>
    <defs></defs>
    <g id="x16" stroke="none" stroke-width="1" fill="none" fill-rule="evenodd" transform="translate(-141.000000, -141.000000)" opacity="0.9">
        <g id="SixteenPixels.Icons" transform="translate(75.000000, 45.000000)" fill="#4A4A4A">
            <g id="Row-3" transform="translate(0.000000, 96.000000)">
                <path d="M66,0 L82,0 L82,16 L66,16 L66,0 Z M68,2 L68,14 L80,14 L80,2 L68,2 Z M72.8773592,4.74730832 L79.1292845,11.2213665 L76.2519253,14 L70,7.5259418 L72.8773592,4.74730832 Z M76.3012882,11.1720037 C76.3012882,11.1720037 75.2593006,10.092994 74.9119715,9.73332406 C74.2173131,9.01398426 72.8279963,7.57530466 72.8279963,7.57530466 L71.3893167,8.9646214 L70,7.5259418 L76.2519253,14 L77.6906049,12.6106833 L79.1292845,11.2213665 L77.7399678,9.78268692 L76.3012882,11.1720037 Z" id="Tick.Square.Icon" transform="translate(74.000000, 8.000000) scale(1, -1) translate(-74.000000, -8.000000) "></path>
            </g>
        </g>
    </g>
</svg>