<?xml version="1.0" encoding="UTF-8" standalone="no"?>
<svg width="16px" height="16px" viewBox="0 0 16 16" version="1.1" xmlns="http://www.w3.org/2000/svg" >
    
    
    
    
    <g id="x16" stroke="none" stroke-width="1"  fill-rule="evenodd" transform="translate(-141.000000, -189.000000)" opacity="0.9">
        <g id="SixteenPixels.Icons" transform="translate(75.000000, 45.000000)" >
            <g id="Row-4" transform="translate(0.000000, 144.000000)">
                <path d="M79.0881038,11.1787226 C79.6657276,10.2570506 80,9.16746433 80,8 C80,4.69303423 77.3137085,2 74,2 C70.6930342,2 68,4.6862915 68,8 C68,11.3069658 70.6862915,14 74,14 C74.6789134,14 75.3319513,13.8867802 75.9411236,13.6781554 L70,7.5259418 L72.8773592,4.74730832 L79.0881038,11.1787226 Z M78.9390127,11.4051098 L77.2303667,13.0551301 C77.9033269,12.6238545 78.484929,12.0619116 78.9390127,11.4051098 Z M66,8 C66,3.581722 69.5907123,0 74,0 C78.418278,0 82,3.59071231 82,8 C82,12.418278 78.4092877,16 74,16 C69.581722,16 66,12.4092877 66,8 Z M79.0881038,11.1787226 C79.040072,11.2553633 78.9903576,11.330843 78.9390127,11.4051098 L79.1292845,11.2213665 L79.0881038,11.1787226 Z M77.2303667,13.0551301 C76.8303648,13.3114768 76.3980859,13.5216585 75.9411236,13.6781554 L76.2519253,14 L77.2303667,13.0551301 Z M76.3012882,11.1720037 C76.3012882,11.1720037 75.2593006,10.092994 74.9119715,9.73332406 C74.2173131,9.01398426 72.8279963,7.57530466 72.8279963,7.57530466 L71.3893167,8.9646214 L70,7.5259418 L76.2519253,14 L77.6906049,12.6106833 L79.1292845,11.2213665 L77.7399678,9.78268692 L76.3012882,11.1720037 Z" id="Tick.Circle.Icon" transform="translate(74.000000, 8.000000) scale(1, -1) translate(-74.000000, -8.000000) "></path>
            </g>
        </g>
    </g>
</svg>