<?xml version="1.0" encoding="UTF-8" standalone="no"?>
<svg width="16px" height="16px" viewBox="0 0 16 16" version="1.1" xmlns="http://www.w3.org/2000/svg" >
    
    
    
    
    <g id="x16" stroke="none" stroke-width="1"  fill-rule="evenodd" transform="translate(-308.000000, -45.000000)" opacity="0.9">
        <g id="SixteenPixels.Icons" transform="translate(75.000000, 45.000000)" >
            <g id="Row-1">
                <path d="M234,7.94799706 C233.381406,7.31625653 233,6.45171205 233,5.5 C233,3.56700338 234.570937,2 236.5,2 C237.155539,2 237.768986,2.1806734 238.293496,2.49471639 C238.889245,1.03160067 240.32674,0 242,0 C244.209139,0 246,1.79535615 246,4 C246,5.01361144 245.622039,5.93916627 245,6.64408267 L245,8 L247,8 L247,6 L249,6 L249,16 L247,16 L247,14 L245,14 L245,16 L234,16 L234,7.94799706 Z M236,8.96447255 L236,14 L243,14 L243,7.87359564 C242.680243,7.95610982 242.345137,8 242,8 C241.086785,8 240.245048,7.69320365 239.571745,7.17752252 C238.97667,8.26351424 237.822494,9 236.5,9 C236.330239,9 236.163301,8.98788368 236,8.96447255 Z M245,12 L247,12 L247,10 L245,10 L245,12 Z M240,4 C240,5.11227036 240.895431,6 242,6 C243.11227,6 244,5.1045695 244,4 C244,2.88772964 243.104569,2 242,2 C240.88773,2 240,2.8954305 240,4 Z M235,5.5 C235,6.33420277 235.671573,7 236.5,7 C237.334203,7 238,6.32842712 238,5.5 C238,4.66579723 237.328427,4 236.5,4 C235.665797,4 235,4.67157288 235,5.5 Z" id="Video.Icon"></path>
            </g>
        </g>
    </g>
</svg>