<!--
 // 16pxls (c) by Paul mackenzie <paul@whatspauldoing.com>
 //
 // 16pxls is licensed under a
 // Creative Commons Attribution-ShareAlike 4.0 International License.
 //
 // You should have received a copy of the license along with this
 // work. If not, see <http://creativecommons.org/licenses/by-sa/4.0/>.
-->

<svg width="16" height="16" viewBox="0 0 16 16" xmlns="http://www.w3.org/2000/svg">
    <path d="M10 10V8h4v2h2v6H0v-6h4V7.874A4.005 4.005 0 0 1 1 4c0-2.21 1.795-4 4-4 2.21 0 4 1.795 4 4a4.005 4.005 0 0 1-3 3.874V10h4zM3 4c0 1.112.895 2 2 2 1.112 0 2-.895 2-2 0-1.112-.895-2-2-2-1.112 0-2 .895-2 2zm-1 8v2h12v-2H2z" fill-rule="evenodd"/>
</svg>
