<!--
 // 16pxls (c) by Paul mackenzie <paul@whatspauldoing.com>
 //
 // 16pxls is licensed under a
 // Creative Commons Attribution-ShareAlike 4.0 International License.
 //
 // You should have received a copy of the license along with this
 // work. If not, see <http://creativecommons.org/licenses/by-sa/4.0/>.
-->

<svg width="16" height="16" viewBox="0 0 16 16" xmlns="http://www.w3.org/2000/svg">
    <path d="M4 10.171V0h12v6H6v7c0 1.657-1.347 3-3 3-1.657 0-3-1.347-3-3a3.002 3.002 0 0 1 4-2.829zM4 12H2v2h2v-2zM6 2v2h8V2H6zm8 6.171V6h2v5c0 1.657-1.347 3-3 3-1.657 0-3-1.347-3-3a3.002 3.002 0 0 1 4-2.829zM14 10h-2v2h2v-2z" fill-rule="evenodd"/>
</svg>
