<!--
 // 16pxls (c) by Paul mackenzie <paul@whatspauldoing.com>
 //
 // 16pxls is licensed under a
 // Creative Commons Attribution-ShareAlike 4.0 International License.
 //
 // You should have received a copy of the license along with this
 // work. If not, see <http://creativecommons.org/licenses/by-sa/4.0/>.
-->

<svg width="16" height="16" viewBox="0 0 16 16" xmlns="http://www.w3.org/2000/svg">
    <path d="M6.05 10.157l2.122-2.121L6.05 5.914 7.464 4.5 11 8.036 7.464 11.57 6.05 10.157zM8 0c4.418 0 8 3.59 8 8 0 4.418-3.59 8-8 8-4.418 0-8-3.59-8-8 0-4.418 3.59-8 8-8zm0 2C4.693 2 2 4.686 2 8c0 3.307 2.686 6 6 6 3.307 0 6-2.686 6-6 0-3.307-2.686-6-6-6z" fill-rule="evenodd"/>
</svg>
