<!--
 // 16pxls (c) by Paul mackenzie <paul@whatspauldoing.com>
 //
 // 16pxls is licensed under a
 // Creative Commons Attribution-ShareAlike 4.0 International License.
 //
 // You should have received a copy of the license along with this
 // work. If not, see <http://creativecommons.org/licenses/by-sa/4.0/>.
-->

<svg width="16" height="16" viewBox="0 0 16 16" xmlns="http://www.w3.org/2000/svg">
    <path d="M9.414 8l2.122-2.121-1.415-1.415L8 6.586 5.879 4.464 4.464 5.88 6.586 8l-2.122 2.121 1.415 1.415L8 9.414l2.121 2.122 1.415-1.415L9.414 8zM0 8c0 4.418 3.59 8 8 8 4.418 0 8-3.59 8-8 0-4.418-3.59-8-8-8-4.418 0-8 3.59-8 8zm2 0c0-3.307 2.686-6 6-6 3.307 0 6 2.686 6 6 0 3.307-2.686 6-6 6-3.307 0-6-2.686-6-6z" fill-rule="evenodd"/>
</svg>
