<!--
 // 16pxls (c) by Paul mackenzie <paul@whatspauldoing.com>
 //
 // 16pxls is licensed under a
 // Creative Commons Attribution-ShareAlike 4.0 International License.
 //
 // You should have received a copy of the license along with this
 // work. If not, see <http://creativecommons.org/licenses/by-sa/4.0/>.
-->

<svg width="16" height="16" viewBox="0 0 16 16" xmlns="http://www.w3.org/2000/svg">
    <path d="M0 8c0 4.418 3.59 8 8 8 4.418 0 8-3.59 8-8 0-4.418-3.59-8-8-8-4.418 0-8 3.59-8 8zm2 0c0-3.307 2.686-6 6-6 3.307 0 6 2.686 6 6 0 3.307-2.686 6-6 6-3.307 0-6-2.686-6-6zm9.778-1.672l-1.414-1.414L6.828 8.45 5.414 7.036 4 8.45l2.828 2.828 3.182-3.182 1.768-1.768z" fill-rule="evenodd"/>
</svg>
