<!--
 // 16pxls (c) by Paul mackenzie <paul@whatspauldoing.com>
 //
 // 16pxls is licensed under a
 // Creative Commons Attribution-ShareAlike 4.0 International License.
 //
 // You should have received a copy of the license along with this
 // work. If not, see <http://creativecommons.org/licenses/by-sa/4.0/>.
-->

<svg width="16" height="16" viewBox="0 0 16 16" xmlns="http://www.w3.org/2000/svg">
    <path d="M9 12H7v2h2v-2zm5-2h1c.552 0 1 .444 1 1 0 .552-.445 1-1 1h-4v2a2 2 0 0 1-1.998 2H6.998A1.994 1.994 0 0 1 5 14v-2H1c-.552 0-1-.444-1-1 0-.552.445-1 1-1h1V2.009A2.01 2.01 0 0 1 4.009 0h7.982A2.01 2.01 0 0 1 14 2.009V10zM4 2.997V10h8V2.997c0-.544-.446-.997-.997-.997H4.997C4.453 2 4 2.446 4 2.997z" fill-rule="evenodd"/>
</svg>
