<!--
 // 16pxls (c) by Paul mackenzie <paul@whatspauldoing.com>
 //
 // 16pxls is licensed under a
 // Creative Commons Attribution-ShareAlike 4.0 International License.
 //
 // You should have received a copy of the license along with this
 // work. If not, see <http://creativecommons.org/licenses/by-sa/4.0/>.
-->

<svg width="16" height="16" viewBox="0 0 16 16" xmlns="http://www.w3.org/2000/svg">
    <path d="M7 7.874V10H3a3 3 0 1 0 0 6h10a3 3 0 0 0 0-6H9V7.874A4.002 4.002 0 0 0 8 0a4 4 0 0 0-1 7.874zM9 12h4a1 1 0 0 1 0 2H3a1 1 0 1 1 0-2h4v1h2v-1zM8 6a2 2 0 1 1 0-4 2 2 0 0 1 0 4z" fill-rule="evenodd"/>
</svg>
