<!--
 // 16pxls (c) by Paul mackenzie <paul@whatspauldoing.com>
 //
 // 16pxls is licensed under a
 // Creative Commons Attribution-ShareAlike 4.0 International License.
 //
 // You should have received a copy of the license along with this
 // work. If not, see <http://creativecommons.org/licenses/by-sa/4.0/>.
-->

<svg width="16" height="16" viewBox="0 0 16 16" xmlns="http://www.w3.org/2000/svg">
    <path d="M0 14h12v2H0v-2zm4-6h8v2H4V8zm0-6h6v2H4V2zm8 6c2.21 0 4 1.795 4 4 0 2.21-1.795 4-4 4v-2c1.112 0 2-.895 2-2 0-1.112-.895-2-2-2V8zm2-3v1h-2l-2-2V2l2-2h2v1h2v1h-2v2h2v1h-2zM4 2v2c-1.112 0-2 .895-2 2 0 1.112.895 2 2 2v2c-2.21 0-4-1.795-4-4 0-2.21 1.795-4 4-4z" fill-rule="evenodd"/>
</svg>
