<!--
 // 16pxls (c) by Paul mackenzie <paul@whatspauldoing.com>
 //
 // 16pxls is licensed under a
 // Creative Commons Attribution-ShareAlike 4.0 International License.
 //
 // You should have received a copy of the license along with this
 // work. If not, see <http://creativecommons.org/licenses/by-sa/4.0/>.
-->

<svg width="16" height="16" viewBox="0 0 16 16" xmlns="http://www.w3.org/2000/svg">
    <path d="M7.654 8L5.817 6.164A3.49 3.49 0 0 1 3.544 7h-.041A3.504 3.504 0 0 1 0 3.5C0 1.567 1.564 0 3.503 0h.04A3.504 3.504 0 0 1 6.92 4.438l2.148 2.148 5.518-5.518L16 2.482 10.482 8 16 13.518l-1.414 1.414-5.518-5.518-2.149 2.149A3.498 3.498 0 0 1 3.544 16h-.041A3.504 3.504 0 0 1 0 12.5C0 10.567 1.564 9 3.503 9h.04a3.49 3.49 0 0 1 2.273.838L7.654 8zm-4.13-6a1.5 1.5 0 0 0 0 3c.839 0 1.51-.672 1.51-1.5 0-.834-.677-1.5-1.51-1.5zm0 9a1.5 1.5 0 0 0 0 3c.839 0 1.51-.672 1.51-1.5 0-.834-.677-1.5-1.51-1.5z" fill-rule="evenodd"/>
</svg>
