<!--
 // 16pxls (c) by Paul mackenzie <paul@whatspauldoing.com>
 //
 // 16pxls is licensed under a
 // Creative Commons Attribution-ShareAlike 4.0 International License.
 //
 // You should have received a copy of the license along with this
 // work. If not, see <http://creativecommons.org/licenses/by-sa/4.0/>.
-->

<svg width="16" height="16" viewBox="0 0 16 16" xmlns="http://www.w3.org/2000/svg">
    <path d="M9 13.829A3.004 3.004 0 0 0 11 11a3.003 3.003 0 0 0-2-2.829V0H7v8.171A3.004 3.004 0 0 0 5 11c0 1.306.836 2.417 2 2.829V16h2v-2.171zm-5-6A3.004 3.004 0 0 0 6 5a3.003 3.003 0 0 0-2-2.829V0H2v2.171A3.004 3.004 0 0 0 0 5c0 1.306.836 2.417 2 2.829V16h2V7.829zm10 0A3.004 3.004 0 0 0 16 5a3.003 3.003 0 0 0-2-2.829V0h-2v2.171A3.004 3.004 0 0 0 10 5c0 1.306.836 2.417 2 2.829V16h2V7.829zM12 6V4h2v2h-2zM2 6V4h2v2H2zm5 6v-2h2v2H7z" fill-rule="evenodd"/>
</svg>
