<svg width="16" height="16" viewBox="0 0 16 16" xmlns="http://www.w3.org/2000/svg"><path d="M13.088 4.821C13.666 5.743 14 6.833 14 8c0 3.307-2.686 6-6 6-3.307 0-6-2.686-6-6a6.004 6.004 0 0 1 7.941-5.678L4 8.474l2.877 2.779 6.211-6.432zm-.149-.226l-1.709-1.65a6.043 6.043 0 0 1 1.709 1.65zM0 8c0 4.418 3.59 8 8 8 4.418 0 8-3.59 8-8 0-4.418-3.59-8-8-8-4.418 0-8 3.59-8 8zm13.088-3.179a6.015 6.015 0 0 0-.149-.226l.19.184-.04.042zM11.23 2.945a5.98 5.98 0 0 0-1.289-.623l.31-.322.98.945zm-.929 1.883L8.912 6.267 6.828 8.425l-1.439-1.39L4 8.475 10.252 2l1.439 1.39 1.438 1.389-1.389 1.438-1.439-1.389z" fill-rule="evenodd" opacity=".9"/></svg>