<!--
 // 16pxls (c) by Paul mackenzie <paul@whatspauldoing.com>
 //
 // 16pxls is licensed under a
 // Creative Commons Attribution-ShareAlike 4.0 International License.
 //
 // You should have received a copy of the license along with this
 // work. If not, see <http://creativecommons.org/licenses/by-sa/4.0/>.
-->

<svg width="16" height="16" viewBox="0 0 16 16" xmlns="http://www.w3.org/2000/svg">
    <path d="M12 14V2H4v12h8zm2 0h2v2H0v-2h2V0h12v14zM5 6h2v2H5V6zm0-3h2v2H5V3zm4 0h2v2H9V3zm0 3h2v2H9V6zm0 3h2v2H9V9zM5 9h2v2H5V9zm2 3h2v2H7v-2z" fill-rule="evenodd"/>
</svg>
