<!--
 // 16pxls (c) by Paul mackenzie <paul@whatspauldoing.com>
 //
 // 16pxls is licensed under a
 // Creative Commons Attribution-ShareAlike 4.0 International License.
 //
 // You should have received a copy of the license along with this
 // work. If not, see <http://creativecommons.org/licenses/by-sa/4.0/>.
-->

<svg width="16" height="16" viewBox="0 0 16 16" xmlns="http://www.w3.org/2000/svg">
    <path d="M1 7.948A3.49 3.49 0 0 1 0 5.5a3.503 3.503 0 0 1 5.293-3.005A4.005 4.005 0 0 1 9 0c2.21 0 4 1.795 4 4a3.98 3.98 0 0 1-1 2.644V8h2V6h2v10h-2v-2h-2v2H1V7.948zm2 1.016V14h7V7.874a3.998 3.998 0 0 1-3.428-.696A3.502 3.502 0 0 1 3 8.964zM12 12h2v-2h-2v2zM7 4c0 1.112.895 2 2 2 1.112 0 2-.895 2-2 0-1.112-.895-2-2-2-1.112 0-2 .895-2 2zM2 5.5C2 6.334 2.672 7 3.5 7 4.334 7 5 6.328 5 5.5 5 4.666 4.328 4 3.5 4 2.666 4 2 4.672 2 5.5z" fill-rule="evenodd"/>
</svg>
